<?xml version="1.0" encoding="UTF-8"?>
<svg xmlns="http://www.w3.org/2000/svg" xmlns:xlink="http://www.w3.org/1999/xlink" width="500px" height="500px" viewBox="0 0 500 500" version="1.1">
<defs>
<linearGradient id="linear0" gradientUnits="userSpaceOnUse" x1="-0.0302539" y1="-0.35514" x2="0.7398" y2="0.925552" gradientTransform="matrix(339.273438,0,0,343.382812,84.285156,83.972656)">
<stop offset="0.395" style="stop-color:rgb(89.019608%,34.901961%,34.901961%);stop-opacity:1;"/>
<stop offset="0.72" style="stop-color:rgb(88.627451%,40%,18.823529%);stop-opacity:1;"/>
<stop offset="0.75" style="stop-color:rgb(58.431373%,85.882353%,14.117647%);stop-opacity:1;"/>
</linearGradient>
<filter id="alpha" filterUnits="objectBoundingBox" x="0%" y="0%" width="100%" height="100%">
  <feColorMatrix type="matrix" in="SourceGraphic" values="0 0 0 0 1 0 0 0 0 1 0 0 0 0 1 0 0 0 1 0"/>
</filter>
<mask id="mask0">
  <g filter="url(#alpha)">
<rect x="0" y="0" width="500" height="500" style="fill:rgb(0%,0%,0%);fill-opacity:0.321569;stroke:none;"/>
  </g>
</mask>
<clipPath id="clip1">
  <rect x="0" y="0" width="500" height="500"/>
</clipPath>
<g id="surface5" clip-path="url(#clip1)">
<path style=" stroke:none;fill-rule:nonzero;fill:rgb(89.803922%,89.803922%,89.803922%);fill-opacity:1;" d="M 166.984375 196.949219 C 156.550781 223.035156 159.84375 250.550781 147.035156 245.308594 C 134.230469 240.058594 132.3125 214.648438 142.75 188.558594 C 153.191406 162.464844 172.035156 145.570312 184.84375 150.8125 C 197.648438 156.0625 177.429688 170.855469 166.984375 196.949219 Z M 158.949219 271.222656 C 159.878906 279.8125 155.949219 287.300781 150.164062 287.941406 C 144.394531 288.585938 138.949219 282.144531 138.015625 273.550781 C 137.085938 264.957031 141.015625 257.480469 146.792969 256.835938 C 152.578125 256.191406 158.015625 262.636719 158.949219 271.222656 Z M 158.949219 271.222656 "/>
</g>
</defs>
<g id="surface1">
<path style=" stroke:none;fill-rule:nonzero;fill:url(#linear0);" d="M 423.558594 255.664062 C 423.558594 160.839844 347.609375 83.972656 253.921875 83.972656 C 160.234375 83.972656 84.285156 160.839844 84.285156 255.664062 C 84.285156 350.488281 160.234375 427.355469 253.921875 427.355469 C 347.609375 427.355469 423.558594 350.488281 423.558594 255.664062 Z M 423.558594 255.664062 "/>
<path style=" stroke:none;fill-rule:evenodd;fill:rgb(35.294119%,47.058824%,65.098041%);fill-opacity:1;" d="M 62.421875 316.765625 C 65.351562 313.09375 71.027344 313.644531 73.351562 317.730469 C 74.792969 320.324219 74.4375 323.546875 72.464844 325.765625 C 60.921875 338.941406 55.941406 349.191406 59.257812 355.035156 C 69.894531 373.777344 161.898438 339.972656 264.769531 279.535156 C 268.3125 277.449219 271.828125 275.363281 275.308594 273.269531 C 276.515625 272.519531 277.242188 271.191406 277.222656 269.769531 C 277.222656 245.714844 296.492188 226.207031 320.269531 226.207031 C 333 226.207031 346.8125 226.59375 357.050781 219.007812 C 408.355469 180.980469 438.835938 148.585938 431.785156 136.164062 C 428.628906 130.605469 418.320312 129.671875 402.691406 132.679688 C 399.820312 133.257812 396.898438 131.941406 395.429688 129.40625 C 393.1875 125.449219 395.5 120.457031 400 119.792969 C 430.785156 115.234375 452.621094 119.050781 460.277344 132.535156 C 474.613281 157.8125 435.164062 209.949219 366.484375 262.972656 C 364.433594 264.628906 363.261719 267.140625 363.3125 269.777344 C 363.3125 293.835938 344.042969 313.34375 320.269531 313.34375 C 319.097656 313.34375 317.925781 313.296875 316.757812 313.199219 C 306.148438 312.335938 294.835938 311.886719 285.65625 317.269531 C 169.914062 385.269531 60.441406 412.820312 41.136719 378.792969 C 33.222656 364.84375 41.691406 342.714844 62.421875 316.765625 Z M 62.421875 316.765625 "/>
<path style=" stroke:none;fill-rule:nonzero;fill:rgb(43.921569%,68.627453%,3.529412%);fill-opacity:1;" d="M 341.792969 269.777344 C 341.792969 257.746094 332.15625 247.992188 320.269531 247.992188 C 308.386719 247.992188 298.75 257.746094 298.75 269.777344 C 298.75 281.808594 308.386719 291.5625 320.269531 291.5625 C 332.15625 291.5625 341.792969 281.808594 341.792969 269.777344 Z M 341.792969 269.777344 "/>
<use xlink:href="#surface5" mask="url(#mask0)"/>
<path style=" stroke:none;fill-rule:nonzero;fill:rgb(3.137255%,5.882353%,10.588235%);fill-opacity:0.109804;" d="M 203.835938 386.472656 C 197.941406 383.019531 200.765625 377.242188 215.085938 372.441406 C 245.269531 365.730469 240.179688 379.300781 283.621094 374.078125 C 327.070312 368.863281 349.980469 350.730469 361.507812 338.808594 C 370.734375 329.265625 379.269531 316.355469 378.863281 320.914062 C 376.898438 330.601562 361.042969 356.144531 313.320312 380.785156 C 253.679688 411.59375 212.871094 391.757812 203.835938 386.472656 Z M 203.835938 386.472656 "/>
<path style=" stroke:none;fill-rule:nonzero;fill:rgb(35.294119%,47.058824%,65.098041%);fill-opacity:1;" d="M 395.765625 160.527344 C 401.3125 156.808594 402.871094 149.269531 398.851562 143.929688 C 373.011719 109.5 335.808594 85.339844 293.84375 75.75 C 247.949219 65.328125 199.796875 73.261719 159.671875 97.855469 C 119.441406 122.472656 90.171875 161.871094 77.972656 207.820312 C 66.867188 249.660156 70.664062 294.054688 88.714844 333.398438 C 91.542969 339.5625 99.058594 341.730469 104.984375 338.4375 C 110.835938 335.1875 112.929688 327.855469 110.1875 321.757812 C 95.039062 287.964844 91.957031 250 101.457031 214.207031 C 112.027344 174.394531 137.394531 140.25 172.257812 118.921875 C 207.027344 97.613281 248.746094 90.738281 288.515625 99.769531 C 324.242188 107.9375 356.011719 128.292969 378.355469 157.34375 C 382.507812 162.730469 390.121094 164.3125 395.765625 160.527344 Z M 149.984375 391.929688 C 145.894531 397.292969 146.835938 405 152.371094 408.765625 C 178.460938 426.515625 208.742188 437.125 240.207031 439.542969 C 275.707031 442.257812 311.222656 434.378906 342.351562 416.886719 C 373.558594 399.308594 398.9375 372.972656 415.351562 341.136719 C 429.964844 312.828125 437.078125 281.242188 436 249.398438 C 435.769531 242.65625 429.808594 237.769531 423.144531 238.449219 C 416.441406 239.128906 411.585938 245.1875 411.742188 251.980469 C 412.367188 278.984375 406.199219 305.71875 393.808594 329.722656 C 379.582031 357.3125 357.589844 380.132812 330.542969 395.363281 C 303.628906 410.507812 272.835938 417.339844 242.042969 415 C 215.355469 412.953125 189.640625 404.097656 167.351562 389.285156 C 161.742188 385.5625 154.101562 386.535156 149.992188 391.929688 Z M 149.984375 391.929688 "/>
</g>
</svg>
