<svg width="27" height="27" viewBox="0 0 27 27" fill="none" xmlns="http://www.w3.org/2000/svg">
<g clip-path="url(#clip0_3120_12468)">
<path d="M11.4632 4.72939L11.2383 4.58918C11.0734 4.56369 10.9111 4.55176 10.739 4.55176H7.99124C6.15733 4.55176 4.67065 6.03843 4.67065 7.87234V10.4376H11.4632V4.72939Z" fill="#1C2129"/>
<path d="M11.2383 4.58936V10.4378H14.0596V7.87251C14.0596 6.20831 12.8353 4.83021 11.2383 4.58936Z" fill="#1C2129"/>
<path d="M13.4715 26.0728C14.37 26.0728 15.0984 25.3444 15.0984 24.4459V21.8439C15.0984 20.2708 14.0447 18.8926 12.5266 18.4802L8.43619 17.3691H7.37384L3.28347 18.4802C1.76531 18.8926 0.711548 20.2708 0.711548 21.8439V24.4459C0.711548 25.3444 1.43995 26.0728 2.33853 26.0728H13.4715Z" fill="#5A78A6"/>
<path d="M15.4469 18.4803L11.3565 17.3691H8.04688L12.1373 18.4803C13.6554 18.8927 14.7091 20.2708 14.7091 21.844V24.4459C14.7091 25.3445 13.9807 26.0729 13.0821 26.0729H16.3918C17.2903 26.0729 18.0187 25.3445 18.0187 24.4459V21.844C18.0187 20.2708 16.965 18.8927 15.4469 18.4803Z" fill="#5A78A6"/>
<path d="M11.3565 17.3692V15.272H7.3739V17.3692C7.3739 18.469 9.36524 18.9064 9.36524 18.9064C9.36524 18.9064 11.3565 18.469 11.3565 17.3692Z" fill="#FFDDCE"/>
<path d="M9.36523 18.9065L10.367 19.773C10.6782 20.0421 11.1402 20.0407 11.4498 19.7697L13.5196 17.9569L12.9023 17.0337C12.6888 16.7145 12.2489 16.6444 11.9469 16.8814L9.36523 18.9065Z" fill="#87AB49"/>
<path d="M9.36518 18.9065L8.36337 19.773C8.05218 20.0421 7.59017 20.0407 7.28066 19.7697L5.21082 17.9569L5.82816 17.0337C6.0416 16.7145 6.48146 16.6444 6.78356 16.8814L9.36518 18.9065Z" fill="#87AB49"/>
<path d="M3.19666 26.0731H3.98133V23.7986C3.98133 23.5819 3.80567 23.4062 3.58899 23.4062C3.37231 23.4062 3.19666 23.5819 3.19666 23.7986V26.0731Z" fill="#5A78A6"/>
<path d="M15.1412 23.4062C14.9246 23.4062 14.7489 23.5819 14.7489 23.7986V26.0731H15.5336V23.7986C15.5336 23.5819 15.3579 23.4062 15.1412 23.4062Z" fill="#5A78A6"/>
<path d="M22.2555 0.0908203H17.1658C16.4478 0.0908203 15.8657 0.672875 15.8657 1.39087V6.46564C15.8657 7.18364 16.4478 7.7657 17.1658 7.7657H17.8545L18.2311 7.9447H20.2285L20.6517 7.7657H22.2554C22.9734 7.76564 23.5553 7.18359 23.5553 6.46564V1.39087C23.5554 0.672875 22.9734 0.0908711 22.2555 0.0908203Z" fill="#87AB49"/>
<path d="M17.9568 8.04812L17.4035 10.6278C17.3727 10.7715 17.548 10.8668 17.6519 10.7628L20.435 7.97555C20.5692 7.84114 20.7513 7.76562 20.9413 7.76562H17.7285C17.8771 7.76562 17.988 7.90273 17.9568 8.04812Z" fill="#87AB49"/>
<path d="M25.4116 0.0908203H22.1157C22.8337 0.0908203 23.4158 0.672875 23.4158 1.39087V6.46564C23.4158 7.18364 22.8337 7.7657 22.1157 7.7657H25.4116C26.1296 7.7657 26.7116 7.18364 26.7116 6.46564V1.39087C26.7116 0.672875 26.1296 0.0908203 25.4116 0.0908203Z" fill="#87AB49"/>
<path d="M24.2537 3.00733H18.3546C18.1379 3.00733 17.9623 2.83168 17.9623 2.61499C17.9623 2.39831 18.1379 2.22266 18.3546 2.22266H24.2536C24.4703 2.22266 24.646 2.39831 24.646 2.61499C24.646 2.83168 24.4704 3.00733 24.2537 3.00733Z" fill="#F0F7FF"/>
<path d="M24.2537 5.43555H18.3546C18.1379 5.43555 17.9623 5.2599 17.9623 5.04321C17.9623 4.82653 18.1379 4.65088 18.3546 4.65088H24.2536C24.4703 4.65088 24.646 4.82653 24.646 5.04321C24.646 5.2599 24.4704 5.43555 24.2537 5.43555Z" fill="#F0F7FF"/>
<path d="M6.29172 10.1685H4.79353C4.45598 10.1685 4.18237 10.4421 4.18237 10.7796V11.482C4.18237 11.8195 4.45598 12.0932 4.79353 12.0932H6.29172V10.1685Z" fill="#FFDDCE"/>
<path d="M13.9368 10.1685H12.4386V12.0931H13.9368C14.2743 12.0931 14.548 11.8195 14.548 11.482V10.7796C14.5479 10.4421 14.2743 10.1685 13.9368 10.1685Z" fill="#FFCBBE"/>
<path d="M11.4631 12.1308V7.77618C11.4229 7.787 11.3832 7.8 11.3449 7.81711C10.0855 8.3823 8.64465 8.3823 7.38523 7.81711C7.28376 7.77156 7.17377 7.74805 7.06251 7.74805C6.62721 7.74805 6.27433 8.10093 6.27433 8.53622V9.3638C6.27433 9.80824 5.91404 10.1685 5.4696 10.1685V12.0334C5.4696 13.9859 6.90621 15.6027 8.77998 15.885C10.3406 15.3507 11.4631 13.8724 11.4631 12.1308Z" fill="#FFDDCE"/>
<path d="M12.4558 9.36381V8.53622C12.4558 8.10093 12.1029 7.74805 11.6676 7.74805C11.5564 7.74805 11.4464 7.77161 11.3449 7.81716C11.3095 7.83306 11.2739 7.84834 11.2382 7.86332V12.0334C11.2382 13.8349 10.0149 15.3502 8.35388 15.7955C8.67644 15.882 9.01521 15.9288 9.36504 15.9288C11.5164 15.9288 13.2605 14.1848 13.2605 12.0334V10.1685C12.8161 10.1685 12.4558 9.80824 12.4558 9.36381Z" fill="#FFCBBE"/>
</g>
<defs>
<clipPath id="clip0_3120_12468">
<rect width="26" height="26" fill="white" transform="translate(0.711548 0.0820312)"/>
</clipPath>
</defs>
</svg>
